<svg width="24" height="24" viewBox="0 0 24 24" fill="none" xmlns="http://www.w3.org/2000/svg">
<mask id="mask0_227_67" style="mask-type:alpha" maskUnits="userSpaceOnUse" x="0" y="0" width="24" height="24">
<rect width="24" height="24" fill="#D9D9D9"/>
</mask>
<g mask="url(#mask0_227_67)">
<path d="M4.625 22C4.35833 22 4.11667 21.8917 3.9 21.675C3.68333 21.4583 3.575 21.2167 3.575 20.95V18.325C3.575 16.825 4.04167 15.5 4.975 14.35C5.90833 13.2 7.10833 12.4667 8.575 12.15C7.90833 12.6167 7.39167 13.2042 7.025 13.9125C6.65833 14.6208 6.475 15.3833 6.475 16.2V20.95C6.475 21.1333 6.5 21.3167 6.55 21.5C6.6 21.6833 6.68333 21.85 6.8 22H4.625ZM8.3 22C8.01667 22 7.77083 21.8958 7.5625 21.6875C7.35417 21.4792 7.25 21.2333 7.25 20.95V16.2C7.25 15.0333 7.6625 14.0417 8.4875 13.225C9.3125 12.4083 10.3083 12 11.475 12H16.2C17.3667 12 18.3583 12.4083 19.175 13.225C19.9917 14.0417 20.4 15.0333 20.4 16.2V17.8C20.4 18.9667 19.9917 19.9583 19.175 20.775C18.3583 21.5917 17.3667 22 16.2 22H8.3ZM12 9.9C10.9 9.9 9.96667 9.51667 9.2 8.75C8.43333 7.98333 8.05 7.05 8.05 5.95C8.05 4.85 8.43333 3.91667 9.2 3.15C9.96667 2.38333 10.9 2 12 2C13.1 2 14.0333 2.38333 14.8 3.15C15.5667 3.91667 15.95 4.85 15.95 5.95C15.95 7.05 15.5667 7.98333 14.8 8.75C14.0333 9.51667 13.1 9.9 12 9.9Z" fill="white"/>
</g>
</svg>
